<?xml version="1.0" encoding="UTF-8" standalone="no"?>
<!-- Created with Inkscape (http://www.inkscape.org/) -->

<svg
   xmlns:dc="http://purl.org/dc/elements/1.1/"
   xmlns:cc="http://creativecommons.org/ns#"
   xmlns:rdf="http://www.w3.org/1999/02/22-rdf-syntax-ns#"
   xmlns:svg="http://www.w3.org/2000/svg"
   xmlns="http://www.w3.org/2000/svg"
   xmlns:sodipodi="http://sodipodi.sourceforge.net/DTD/sodipodi-0.dtd"
   xmlns:inkscape="http://www.inkscape.org/namespaces/inkscape"
   width="210mm"
   height="297mm"
   viewBox="0 0 744.09448819 1052.3622047"
   id="svg2"
   version="1.1"
   inkscape:version="0.91 r13725"
   sodipodi:docname="girl.svg">
  <defs
     id="defs4" />
  <sodipodi:namedview
     id="base"
     pagecolor="#ffffff"
     bordercolor="#666666"
     borderopacity="1.0"
     inkscape:pageopacity="0.0"
     inkscape:pageshadow="2"
     inkscape:zoom="0.7"
     inkscape:cx="466.94338"
     inkscape:cy="615.21556"
     inkscape:document-units="px"
     inkscape:current-layer="layer1"
     showgrid="false"
     showguides="false"
     inkscape:window-width="1680"
     inkscape:window-height="987"
     inkscape:window-x="-4"
     inkscape:window-y="-4"
     inkscape:window-maximized="1" />
  <metadata
     id="metadata7">
    <rdf:RDF>
      <cc:Work
         rdf:about="">
        <dc:format>image/svg+xml</dc:format>
        <dc:type
           rdf:resource="http://purl.org/dc/dcmitype/StillImage" />
        <dc:title></dc:title>
      </cc:Work>
    </rdf:RDF>
  </metadata>
  <g
     inkscape:label="Layer 1"
     inkscape:groupmode="layer"
     id="layer1">
    <path
       style="fill:#fff6d5;fill-opacity:1;fill-rule:evenodd;stroke:#000000;stroke-width:2;stroke-linecap:butt;stroke-linejoin:miter;stroke-miterlimit:4;stroke-dasharray:none;stroke-opacity:1"
       d="m 186.87822,226.05742 c 0,0 -7.07107,178.797 124.24876,166.67517 C 442.44681,380.61076 410.12193,217.9762 410.12193,217.9762 L 305.71429,149.50506 Z"
       id="path4136"
       inkscape:connector-curvature="0"
       sodipodi:nodetypes="csccc" />
    <path
       style="fill:#552200;fill-rule:evenodd;stroke:#000000;stroke-width:1px;stroke-linecap:butt;stroke-linejoin:miter;stroke-opacity:1"
       d="m 318.91805,236.69867 c 18.57143,-17.5 74.28572,9.64285 76.78572,1.42857 2.5,-8.21429 -33.76252,-23.70042 -56.42857,-18.57143 -22.66605,5.12899 -18.29703,16.48046 -20.35715,17.14286 z"
       id="path4271"
       inkscape:connector-curvature="0"
       sodipodi:nodetypes="cszc" />
    <path
       inkscape:connector-curvature="0"
       id="path4273"
       d="m 290.82704,237.70883 c -18.57143,-17.5 -74.28572,9.64285 -76.78572,1.42857 -2.5,-8.21429 37.11556,-22.94168 56.42857,-18.57143 26.01908,5.88773 18.29703,16.48046 20.35715,17.14286 z"
       style="fill:#552200;fill-rule:evenodd;stroke:#000000;stroke-width:1px;stroke-linecap:butt;stroke-linejoin:miter;stroke-opacity:1"
       sodipodi:nodetypes="cssc" />
    <path
       style="fill:#ff9955;fill-opacity:1;fill-rule:evenodd;stroke:#000000;stroke-width:1.25546443px;stroke-linecap:butt;stroke-linejoin:miter;stroke-opacity:1"
       d="m 204.23264,223.26176 c 21.41932,16.40698 -2.25466,96.30182 -2.25466,96.30182 0,0 -54.11195,-60.63447 2.25466,-96.30182 z"
       id="path4142"
       inkscape:connector-curvature="0" />
    <path
       inkscape:connector-curvature="0"
       id="path4144"
       d="m 183.38661,288.05365 c 25.93644,13.54762 26.56835,94.83375 26.56835,94.83375 0,0 -71.25765,-53.06462 -26.56835,-94.83375 z"
       style="fill:#ff9955;fill-opacity:1;fill-rule:evenodd;stroke:#000000;stroke-width:1.25546443px;stroke-linecap:butt;stroke-linejoin:miter;stroke-opacity:1" />
    <path
       inkscape:connector-curvature="0"
       id="path4146"
       d="m 204.23264,344.53071 c 21.41932,16.40698 -2.25466,96.30182 -2.25466,96.30182 0,0 -54.11195,-60.63447 2.25466,-96.30182 z"
       style="fill:#ff9955;fill-opacity:1;fill-rule:evenodd;stroke:#000000;stroke-width:1.25546443px;stroke-linecap:butt;stroke-linejoin:miter;stroke-opacity:1" />
    <path
       style="fill:#ff9955;fill-opacity:1;fill-rule:evenodd;stroke:#000000;stroke-width:1.25546443px;stroke-linecap:butt;stroke-linejoin:miter;stroke-opacity:1"
       d="m 183.38661,409.3226 c 25.93644,13.54762 26.56835,94.83375 26.56835,94.83375 0,0 -71.25765,-53.06461 -26.56835,-94.83375 z"
       id="path4148"
       inkscape:connector-curvature="0" />
    <path
       sodipodi:nodetypes="sssss"
       inkscape:connector-curvature="0"
       id="path4165"
       d="m 388.40365,281.61582 c 0,21.75778 -16.62802,22.22336 -38.3858,22.22336 -21.75778,0 -40.4061,-0.46558 -40.4061,-22.22336 0,-21.75778 17.63817,-39.39595 39.39595,-39.39595 21.75778,0 39.39595,17.63817 39.39595,39.39595 z"
       style="fill:#ffffff;fill-opacity:1;stroke:#000000;stroke-width:2;stroke-linecap:round;stroke-miterlimit:4;stroke-dasharray:none;stroke-opacity:1" />
    <circle
       style="fill:#000000;fill-opacity:1;stroke:none;stroke-width:2.34064984;stroke-linecap:round;stroke-miterlimit:4;stroke-dasharray:none;stroke-opacity:1"
       id="circle4167"
       cx="350.77551"
       cy="284.89883"
       r="14.719274" />
    <path
       style="fill:#550000;fill-opacity:1;stroke:#000000;stroke-width:2;stroke-linecap:round;stroke-miterlimit:4;stroke-dasharray:none;stroke-opacity:1"
       d="m 322.75427,350.72459 c 0,5.85787 -9.06364,16.67803 -20.24421,16.67803 -11.18056,0 -20.2442,-10.82017 -20.2442,-16.67803 0,-5.85786 9.06364,-3.82089 20.2442,-3.82089 11.18057,0 20.24421,-2.03698 20.24421,3.82089 z"
       id="path4171"
       inkscape:connector-curvature="0"
       sodipodi:nodetypes="sssss" />
    <path
       inkscape:connector-curvature="0"
       id="path4173"
       d="m 404.49817,226.17515 c -24.15704,16.40042 2.54284,96.26333 2.54284,96.26333 0,0 61.02828,-60.61024 -2.54284,-96.26333 z"
       style="fill:#ff9955;fill-opacity:1;fill-rule:evenodd;stroke:#000000;stroke-width:1.33301973px;stroke-linecap:butt;stroke-linejoin:miter;stroke-opacity:1" />
    <path
       style="fill:#ff9955;fill-opacity:1;fill-rule:evenodd;stroke:#000000;stroke-width:1.33301973px;stroke-linecap:butt;stroke-linejoin:miter;stroke-opacity:1"
       d="m 424.4372,291.65544 c -29.25151,13.5422 -29.96418,94.79585 -29.96418,94.79585 0,0 80.36545,-53.04341 29.96418,-94.79585 z"
       id="path4175"
       inkscape:connector-curvature="0" />
    <path
       style="fill:#ff9955;fill-opacity:1;fill-rule:evenodd;stroke:#000000;stroke-width:1.33301973px;stroke-linecap:butt;stroke-linejoin:miter;stroke-opacity:1"
       d="m 404.49817,347.39564 c -24.15704,16.40042 2.54284,96.26334 2.54284,96.26334 0,0 61.02828,-60.61025 -2.54284,-96.26334 z"
       id="path4177"
       inkscape:connector-curvature="0" />
    <path
       inkscape:connector-curvature="0"
       id="path4179"
       d="m 428.00863,412.16164 c -29.25151,13.54221 -29.96418,94.79585 -29.96418,94.79585 0,0 80.36545,-53.04341 29.96418,-94.79585 z"
       style="fill:#ff9955;fill-opacity:1;fill-rule:evenodd;stroke:#000000;stroke-width:1.33301973px;stroke-linecap:butt;stroke-linejoin:miter;stroke-opacity:1" />
    <path
       style="fill:#ffffff;fill-opacity:1;stroke:#000000;stroke-width:2;stroke-linecap:round;stroke-miterlimit:4;stroke-dasharray:none;stroke-opacity:1"
       d="m 294.96454,284.1412 c 0,21.75778 -16.62802,22.22336 -38.3858,22.22336 -21.75778,0 -40.4061,-0.46558 -40.4061,-22.22336 0,-21.75778 17.63817,-39.39595 39.39595,-39.39595 21.75778,0 39.39595,17.63817 39.39595,39.39595 z"
       id="path4152"
       inkscape:connector-curvature="0"
       sodipodi:nodetypes="sssss" />
    <circle
       r="14.719274"
       cy="287.42422"
       cx="257.3364"
       id="circle4159"
       style="fill:#000000;fill-opacity:1;stroke:none;stroke-width:2.34064984;stroke-linecap:round;stroke-miterlimit:4;stroke-dasharray:none;stroke-opacity:1" />
    <ellipse
       cy="279.15356"
       cx="256.57874"
       id="circle4181"
       style="fill:#ffffff;fill-opacity:1;stroke:none;stroke-width:4;stroke-linecap:round;stroke-miterlimit:4;stroke-dasharray:none;stroke-opacity:1"
       rx="2.6516504"
       ry="1.9571705" />
    <ellipse
       ry="1.9571705"
       rx="2.6516504"
       style="fill:#ffffff;fill-opacity:1;stroke:none;stroke-width:4;stroke-linecap:round;stroke-miterlimit:4;stroke-dasharray:none;stroke-opacity:1"
       id="ellipse4183"
       cx="349.43588"
       cy="277.36786" />
    <path
       style="fill:#ff9955;fill-opacity:1;stroke:#000000;stroke-width:1.20000005;stroke-linecap:round;stroke-miterlimit:4;stroke-dasharray:none;stroke-opacity:1"
       d="m 200.16937,475.91266 a 24.748737,23.738585 0 0 0 -24.75,23.73828 24.748737,23.738585 0 0 0 9.99023,19.01954 l -21.10156,63.30664 27.27344,-42.42579 14.14258,50.50782 -1.00977,-44.44727 21.21289,42.42774 -10.45898,-69.73633 a 24.748737,23.738585 0 0 0 9.44921,-18.65235 24.748737,23.738585 0 0 0 -24.74804,-23.73828 z"
       id="path4186"
       inkscape:connector-curvature="0" />
    <path
       style="fill:none;fill-rule:evenodd;stroke:#000000;stroke-width:1px;stroke-linecap:butt;stroke-linejoin:miter;stroke-opacity:1"
       d="m 191.58236,519.34829 c 14.64721,8.08122 19.1929,-1.01016 19.1929,-1.01016"
       id="path4191"
       inkscape:connector-curvature="0" />
    <path
       id="path4193"
       d="m 415.80428,475.91266 a 24.748737,23.738585 0 0 1 24.75,23.73828 24.748737,23.738585 0 0 1 -9.99023,19.01954 l 21.10156,63.30664 -27.27344,-42.42579 -14.14258,50.50782 1.00977,-44.44727 -21.21289,42.42774 10.45898,-69.73633 a 24.748737,23.738585 0 0 1 -9.44921,-18.65235 24.748737,23.738585 0 0 1 24.74804,-23.73828 z"
       style="fill:#ff9955;fill-opacity:1;stroke:#000000;stroke-width:1.20000005;stroke-linecap:round;stroke-miterlimit:4;stroke-dasharray:none;stroke-opacity:1"
       inkscape:connector-curvature="0" />
    <path
       inkscape:connector-curvature="0"
       id="path4195"
       d="m 424.39129,519.34829 c -14.64721,8.08122 -19.1929,-1.01016 -19.1929,-1.01016"
       style="fill:none;fill-rule:evenodd;stroke:#000000;stroke-width:1px;stroke-linecap:butt;stroke-linejoin:miter;stroke-opacity:1" />
    <path
       inkscape:connector-curvature="0"
       id="path4197"
       d="m 1199.0511,238.17925 c 0,0 -7.0711,178.797 124.2487,166.67517 131.3199,-12.12183 98.995,-174.75639 98.995,-174.75639 l -102.9791,-43.47114 z"
       style="fill:#fff6d5;fill-opacity:1;fill-rule:evenodd;stroke:#000000;stroke-width:2;stroke-linecap:butt;stroke-linejoin:miter;stroke-miterlimit:4;stroke-dasharray:none;stroke-opacity:1" />
    <path
       sodipodi:nodetypes="cscc"
       inkscape:connector-curvature="0"
       id="path4199"
       d="m 1320.2694,185.65132 c 0,0 -9.1298,51.49675 -58.6273,56.54751 -49.4975,5.05077 -65.8035,30.15229 -65.8035,30.15229 4.2857,-59.28571 13.314,-114.98407 124.4308,-86.6998 z"
       style="fill:#ff9955;fill-rule:evenodd;stroke:#000000;stroke-width:1px;stroke-linecap:butt;stroke-linejoin:miter;stroke-opacity:1" />
    <path
       inkscape:connector-curvature="0"
       id="path4201"
       d="m 1210.6912,241.09788 c 21.4193,16.40698 -2.2547,96.30182 -2.2547,96.30182 0,0 -54.1119,-60.63447 2.2547,-96.30182 z"
       style="fill:#ff9955;fill-opacity:1;fill-rule:evenodd;stroke:#000000;stroke-width:1.25546443px;stroke-linecap:butt;stroke-linejoin:miter;stroke-opacity:1" />
    <path
       style="fill:#ff9955;fill-opacity:1;fill-rule:evenodd;stroke:#000000;stroke-width:1.25546443px;stroke-linecap:butt;stroke-linejoin:miter;stroke-opacity:1"
       d="m 1189.8452,305.88977 c 25.9364,13.54762 26.5683,94.83375 26.5683,94.83375 0,0 -71.2576,-53.06462 -26.5683,-94.83375 z"
       id="path4203"
       inkscape:connector-curvature="0" />
    <path
       style="fill:#ff9955;fill-opacity:1;fill-rule:evenodd;stroke:#000000;stroke-width:1.25546443px;stroke-linecap:butt;stroke-linejoin:miter;stroke-opacity:1"
       d="m 1210.6912,362.36683 c 21.4193,16.40698 -2.2547,96.30182 -2.2547,96.30182 0,0 -54.1119,-60.63447 2.2547,-96.30182 z"
       id="path4205"
       inkscape:connector-curvature="0" />
    <path
       inkscape:connector-curvature="0"
       id="path4207"
       d="m 1189.8452,427.15872 c 25.9364,13.54762 26.5683,94.83375 26.5683,94.83375 0,0 -71.2576,-53.06461 -26.5683,-94.83375 z"
       style="fill:#ff9955;fill-opacity:1;fill-rule:evenodd;stroke:#000000;stroke-width:1.25546443px;stroke-linecap:butt;stroke-linejoin:miter;stroke-opacity:1" />
    <path
       style="fill:#ff9955;fill-rule:evenodd;stroke:#000000;stroke-width:1px;stroke-linecap:butt;stroke-linejoin:miter;stroke-opacity:1"
       d="m 1319.1519,184.64117 c 0,0 14.0825,34.91258 61.6577,49.47644 49.4975,15.1523 62.7731,37.22336 62.7731,37.22336 -4.2857,-59.28571 -6.243,-120.03483 -124.4308,-86.6998 z"
       id="path4209"
       inkscape:connector-curvature="0"
       sodipodi:nodetypes="cscc" />
    <path
       style="fill:#ffffff;fill-opacity:1;stroke:#000000;stroke-width:2;stroke-linecap:round;stroke-miterlimit:4;stroke-dasharray:none;stroke-opacity:1"
       d="m 1400.5765,288.18181 c 0,21.75778 -16.628,22.22336 -38.3858,22.22336 -21.7578,0 -40.4061,-0.46558 -40.4061,-22.22336 0,-21.75778 17.6382,-39.39595 39.3959,-39.39595 21.7578,0 39.396,17.63817 39.396,39.39595 z"
       id="path4211"
       inkscape:connector-curvature="0"
       sodipodi:nodetypes="sssss" />
    <circle
       style="fill:#552200;fill-opacity:1;stroke:none;stroke-width:2.34064984;stroke-linecap:round;stroke-miterlimit:4;stroke-dasharray:none;stroke-opacity:1"
       id="circle4213"
       cx="1362.6958"
       cy="288.18179"
       r="23.053032" />
    <circle
       r="14.719274"
       cy="291.46481"
       cx="1362.9484"
       id="circle4215"
       style="fill:#000000;fill-opacity:1;stroke:none;stroke-width:2.34064984;stroke-linecap:round;stroke-miterlimit:4;stroke-dasharray:none;stroke-opacity:1" />
    <circle
       style="fill:#ffffff;fill-opacity:1;stroke:none;stroke-width:4;stroke-linecap:round;stroke-miterlimit:4;stroke-dasharray:none;stroke-opacity:1"
       id="circle4217"
       cx="1370.3982"
       cy="272.14563"
       r="1.6414979" />
    <path
       sodipodi:nodetypes="sssss"
       inkscape:connector-curvature="0"
       id="path4219"
       d="m 1334.9271,358.56071 c 0,5.85787 -9.0636,16.67803 -20.2442,16.67803 -11.1806,0 -20.2442,-10.82017 -20.2442,-16.67803 0,-5.85786 9.0636,-3.82089 20.2442,-3.82089 11.1806,0 20.2442,-2.03698 20.2442,3.82089 z"
       style="fill:#550000;fill-opacity:1;stroke:#000000;stroke-width:2;stroke-linecap:round;stroke-miterlimit:4;stroke-dasharray:none;stroke-opacity:1" />
    <path
       style="fill:#ff9955;fill-opacity:1;fill-rule:evenodd;stroke:#000000;stroke-width:1.33301973px;stroke-linecap:butt;stroke-linejoin:miter;stroke-opacity:1"
       d="m 1425.2424,244.01127 c -24.157,16.40042 2.5429,96.26333 2.5429,96.26333 0,0 61.0283,-60.61024 -2.5429,-96.26333 z"
       id="path4221"
       inkscape:connector-curvature="0" />
    <path
       inkscape:connector-curvature="0"
       id="path4223"
       d="m 1448.7529,308.77727 c -29.2515,13.5422 -29.9642,94.79585 -29.9642,94.79585 0,0 80.3655,-53.04341 29.9642,-94.79585 z"
       style="fill:#ff9955;fill-opacity:1;fill-rule:evenodd;stroke:#000000;stroke-width:1.33301973px;stroke-linecap:butt;stroke-linejoin:miter;stroke-opacity:1" />
    <path
       inkscape:connector-curvature="0"
       id="path4225"
       d="m 1425.2424,365.23176 c -24.157,16.40042 2.5429,96.26334 2.5429,96.26334 0,0 61.0283,-60.61025 -2.5429,-96.26334 z"
       style="fill:#ff9955;fill-opacity:1;fill-rule:evenodd;stroke:#000000;stroke-width:1.33301973px;stroke-linecap:butt;stroke-linejoin:miter;stroke-opacity:1" />
    <path
       style="fill:#ff9955;fill-opacity:1;fill-rule:evenodd;stroke:#000000;stroke-width:1.33301973px;stroke-linecap:butt;stroke-linejoin:miter;stroke-opacity:1"
       d="m 1448.7529,429.99776 c -29.2515,13.54221 -29.9642,94.79585 -29.9642,94.79585 0,0 80.3655,-53.04341 29.9642,-94.79585 z"
       id="path4227"
       inkscape:connector-curvature="0" />
    <path
       sodipodi:nodetypes="sssss"
       inkscape:connector-curvature="0"
       id="path4229"
       d="m 1307.1374,290.70719 c 0,21.75778 -16.628,22.22336 -38.3858,22.22336 -21.7578,0 -40.4061,-0.46558 -40.4061,-22.22336 0,-21.75778 17.6382,-39.39595 39.3959,-39.39595 21.7578,0 39.396,17.63817 39.396,39.39595 z"
       style="fill:#ffffff;fill-opacity:1;stroke:#000000;stroke-width:2;stroke-linecap:round;stroke-miterlimit:4;stroke-dasharray:none;stroke-opacity:1" />
    <circle
       r="23.053032"
       cy="290.70718"
       cx="1269.2567"
       id="circle4231"
       style="fill:#552200;fill-opacity:1;stroke:none;stroke-width:2.34064984;stroke-linecap:round;stroke-miterlimit:4;stroke-dasharray:none;stroke-opacity:1" />
    <circle
       style="fill:#000000;fill-opacity:1;stroke:none;stroke-width:2.34064984;stroke-linecap:round;stroke-miterlimit:4;stroke-dasharray:none;stroke-opacity:1"
       id="circle4233"
       cx="1269.5093"
       cy="293.9902"
       r="14.719274" />
    <circle
       r="1.6414979"
       cy="274.67102"
       cx="1276.9591"
       id="circle4235"
       style="fill:#ffffff;fill-opacity:1;stroke:none;stroke-width:4;stroke-linecap:round;stroke-miterlimit:4;stroke-dasharray:none;stroke-opacity:1" />
    <ellipse
       ry="1.9571705"
       rx="2.6516504"
       style="fill:#ffffff;fill-opacity:1;stroke:none;stroke-width:4;stroke-linecap:round;stroke-miterlimit:4;stroke-dasharray:none;stroke-opacity:1"
       id="ellipse4237"
       cx="1268.7516"
       cy="285.71954" />
    <ellipse
       cy="283.93384"
       cx="1361.6088"
       id="ellipse4239"
       style="fill:#ffffff;fill-opacity:1;stroke:none;stroke-width:4;stroke-linecap:round;stroke-miterlimit:4;stroke-dasharray:none;stroke-opacity:1"
       rx="2.6516504"
       ry="1.9571705" />
    <path
       id="path4241"
       d="m 1206.6279,493.74878 a 24.748737,23.738585 0 0 0 -24.75,23.73828 24.748737,23.738585 0 0 0 9.9903,19.01954 l -21.1016,63.30664 27.2734,-42.42579 14.1426,50.50782 -1.0098,-44.44727 21.2129,42.42774 -10.4589,-69.73633 a 24.748737,23.738585 0 0 0 9.4492,-18.65235 24.748737,23.738585 0 0 0 -24.7481,-23.73828 z"
       style="fill:#ff9955;fill-opacity:1;stroke:#000000;stroke-width:1.20000005;stroke-linecap:round;stroke-miterlimit:4;stroke-dasharray:none;stroke-opacity:1"
       inkscape:connector-curvature="0" />
    <path
       inkscape:connector-curvature="0"
       id="path4243"
       d="m 1198.0409,537.18441 c 14.6472,8.08122 19.1929,-1.01016 19.1929,-1.01016"
       style="fill:none;fill-rule:evenodd;stroke:#000000;stroke-width:1px;stroke-linecap:butt;stroke-linejoin:miter;stroke-opacity:1" />
    <path
       inkscape:connector-curvature="0"
       style="fill:#ff9955;fill-opacity:1;stroke:#000000;stroke-width:1.20000005;stroke-linecap:round;stroke-miterlimit:4;stroke-dasharray:none;stroke-opacity:1"
       d="m 1436.5486,493.74878 a 24.748737,23.738585 0 0 1 24.75,23.73828 24.748737,23.738585 0 0 1 -9.9903,19.01954 l 21.1016,63.30664 -27.2735,-42.42579 -14.1425,50.50782 1.0097,-44.44727 -21.2129,42.42774 10.459,-69.73633 a 24.748737,23.738585 0 0 1 -9.4492,-18.65235 24.748737,23.738585 0 0 1 24.7481,-23.73828 z"
       id="path4245" />
    <path
       style="fill:none;fill-rule:evenodd;stroke:#000000;stroke-width:1px;stroke-linecap:butt;stroke-linejoin:miter;stroke-opacity:1"
       d="m 1445.1356,537.18441 c -14.6472,8.08122 -19.1929,-1.01016 -19.1929,-1.01016"
       id="path4247"
       inkscape:connector-curvature="0" />
    <path
       style="fill:none;fill-rule:evenodd;stroke:#000000;stroke-width:2;stroke-linecap:butt;stroke-linejoin:miter;stroke-opacity:1;stroke-miterlimit:4;stroke-dasharray:none"
       d="M 296.42857,319.50506 C 305,304.14792 309.28572,317.36221 309.28572,317.36221"
       id="path4265"
       inkscape:connector-curvature="0" />
    <path
       sodipodi:nodetypes="cscc"
       inkscape:connector-curvature="0"
       id="path4150"
       d="m 292.46214,149.329 c 0,0 13.99759,45.96139 66.62459,60.51809 54.75332,15.14485 69.43854,37.20505 69.43854,37.20505 -4.74079,-59.25655 -9.67131,-100.69957 -136.06313,-97.72314 z"
       style="fill:#ff9955;fill-rule:evenodd;stroke:#000000;stroke-width:1.05149424px;stroke-linecap:butt;stroke-linejoin:miter;stroke-opacity:1" />
    <path
       style="fill:#ff9955;fill-rule:evenodd;stroke:#000000;stroke-width:1.03554368px;stroke-linecap:butt;stroke-linejoin:miter;stroke-opacity:1"
       d="m 315.02004,149.25991 c 0,0 -9.79362,62.19035 -62.88994,67.23943 -53.09631,5.04909 -70.5879,30.14226 -70.5879,30.14226 4.59732,-59.26599 15.04827,-99.95081 133.47784,-97.38169 z"
       id="path4138"
       inkscape:connector-curvature="0"
       sodipodi:nodetypes="cscc" />
  </g>
</svg>
